<svg id="Layer_1" height="512" viewBox="0 0 64 64" width="512" xmlns="http://www.w3.org/2000/svg" data-name="Layer 1"><path d="m14 32a18.093 18.093 0 0 0 11 16.567v7.481a7 7 0 0 0 14 0v-7.481a17.994 17.994 0 1 0 -25-16.567zm18 29.048a5.008 5.008 0 0 1 -4.6-3.048h9.2a5.008 5.008 0 0 1 -4.6 3.048zm5-5.048h-10v-3h10zm-6-30a1 1 0 1 1 1 1 1 1 0 0 1 -1-1zm1-10a15.991 15.991 0 0 1 5.646 30.955 1 1 0 0 0 -.646.935v3.11h-4v-7.54l6.65-5.7a1 1 0 0 0 .35-.76v-2.184a3 3 0 1 0 -2 0v1.724l-5 4.286v-12.01a3 3 0 1 0 -2 0v8.461l-5-2.857v-1.6a3 3 0 1 0 -2 0v2.18a1 1 0 0 0 .5.868l6.5 3.712v11.42h-4v-3.11a1 1 0 0 0 -.646-.935 15.991 15.991 0 0 1 5.646-30.955zm6 16a1 1 0 1 1 1 1 1 1 0 0 1 -1-1zm-13-1a1 1 0 1 1 1-1 1 1 0 0 1 -1 1z"/><path d="m60 29a3 3 0 0 0 -2.816 2h-4.184v2h4.184a2.995 2.995 0 1 0 2.816-4zm0 4a1 1 0 1 1 1-1 1 1 0 0 1 -1 1z"/><path d="m4 29a3 3 0 1 0 2.816 4h4.184v-2h-4.184a3 3 0 0 0 -2.816-2zm0 4a1 1 0 1 1 1-1 1 1 0 0 1 -1 1z"/><path d="m47.557 17.858 2.956-2.958a2.994 2.994 0 0 0 3.407-4.82 3.072 3.072 0 0 0 -4.242 0 2.993 2.993 0 0 0 -.577 3.4l-2.958 2.959zm3.535-6.364a1 1 0 1 1 1.413 1.415 1.023 1.023 0 0 1 -1.413 0 1 1 0 0 1 0-1.415z"/><path d="m16.443 46.142-2.967 2.967a3.073 3.073 0 0 0 -3.4.569 3 3 0 1 0 4.819.837l2.958-2.959zm-3.535 6.364a1.022 1.022 0 0 1 -1.414 0 1 1 0 1 1 1.414 0z"/><path d="m49.678 53.921a3 3 0 0 0 4.243-4.243 3.076 3.076 0 0 0 -3.4-.569l-2.967-2.967-1.414 1.414 2.96 2.959a3 3 0 0 0 .578 3.406zm1.414-2.829a1 1 0 0 1 1.414 1.414 1.023 1.023 0 0 1 -1.414 0 1 1 0 0 1 0-1.414z"/><path d="m14.322 10.079a3.073 3.073 0 0 0 -4.242 0 2.992 2.992 0 0 0 3.407 4.821l2.956 2.957 1.414-1.414-2.957-2.958a3 3 0 0 0 -.578-3.406zm-1.414 2.829a1.022 1.022 0 0 1 -1.414 0 1 1 0 1 1 1.414 0z"/><path d="m33 11v-4.184a3 3 0 1 0 -2 0v4.184zm-1-8a1 1 0 1 1 -1 1 1 1 0 0 1 1-1z"/></svg>