<svg id="Layer_1" height="512" viewBox="0 0 64 64" width="512" xmlns="http://www.w3.org/2000/svg" data-name="Layer 1"><path d="m33 59v-6.051a20.992 20.992 0 0 0 19.949-19.949h6.051v-2h-6.051a20.992 20.992 0 0 0 -19.949-19.949v-6.051h-2v6.051a20.992 20.992 0 0 0 -19.949 19.949h-6.051v2h6.051a20.992 20.992 0 0 0 19.949 19.949v6.051zm-19.949-26h1.949v-2h-1.949a18.993 18.993 0 0 1 17.949-17.949v1.949h2v-1.949a18.993 18.993 0 0 1 17.949 17.949h-1.949v2h1.949a18.993 18.993 0 0 1 -17.949 17.949v-1.949h-2v1.949a18.993 18.993 0 0 1 -17.949-17.949z"/><path d="m7.193 28.876 1.985.248a22.942 22.942 0 0 1 19.946-19.946l-.248-1.985a24.941 24.941 0 0 0 -21.683 21.683z"/><path d="m29.124 54.822a22.942 22.942 0 0 1 -19.946-19.946l-1.985.248a24.941 24.941 0 0 0 21.683 21.683z"/><path d="m56.807 35.124-1.985-.248a22.942 22.942 0 0 1 -19.946 19.946l.248 1.985a24.941 24.941 0 0 0 21.683-21.683z"/><path d="m54.822 29.124 1.985-.248a24.941 24.941 0 0 0 -21.683-21.683l-.248 1.985a22.942 22.942 0 0 1 19.946 19.946z"/><path d="m37.715 42.4a1 1 0 0 0 1.451-1.054l-1.092-6.364 4.626-4.511a1 1 0 0 0 -.554-1.706l-6.39-.928-2.856-5.79a1.04 1.04 0 0 0 -1.792 0l-2.858 5.79-6.39.928a1 1 0 0 0 -.554 1.706l4.624 4.507-1.092 6.364a1 1 0 0 0 1.447 1.058l5.715-3.009zm-10.568-2.717.838-4.886a1 1 0 0 0 -.287-.885l-3.549-3.459 4.9-.712a1 1 0 0 0 .753-.548l2.198-4.444 2.193 4.444a1 1 0 0 0 .753.548l4.905.712-3.551 3.459a1 1 0 0 0 -.287.885l.838 4.886-4.387-2.307a1 1 0 0 0 -.932 0z"/><path d="m54 6a3 3 0 1 0 -3 3 3 3 0 0 0 3-3zm-4 0a1 1 0 1 1 1 1 1 1 0 0 1 -1-1z"/><path d="m6.5 55a3.5 3.5 0 1 0 -3.5-3.5 3.5 3.5 0 0 0 3.5 3.5zm0-5a1.5 1.5 0 1 1 -1.5 1.5 1.5 1.5 0 0 1 1.5-1.5z"/><path d="m56 62a4 4 0 1 0 -4-4 4 4 0 0 0 4 4zm0-6a2 2 0 1 1 -2 2 2 2 0 0 1 2-2z"/><path d="m15 4h2v2h-2z"/><path d="m4 12h2v2h-2z"/><path d="m13 57h2v2h-2z"/><path d="m42 58h2v2h-2z"/><path d="m59 46h2v2h-2z"/><path d="m57 15h2v2h-2z"/></svg>